<?xml version="1.0" encoding="UTF-8" standalone="no"?>
<!DOCTYPE svg PUBLIC "-//W3C//DTD SVG 1.1//EN" "http://www.w3.org/Graphics/SVG/1.1/DTD/svg11.dtd">
<svg width="100%" height="100%" viewBox="0 0 1024 1024" version="1.1" xmlns="http://www.w3.org/2000/svg" xmlns:xlink="http://www.w3.org/1999/xlink" xml:space="preserve" xmlns:serif="http://www.serif.com/" style="fill-rule:evenodd;clip-rule:evenodd;stroke-linejoin:round;stroke-miterlimit:2;">
    <rect id="LogoV2SW" x="0" y="0" width="1024" height="1024" style="fill:none;"/>
    <path id="Clipboard" d="M301.185,215.603L301.185,182.108C301.185,169.293 305.606,157.003 313.476,147.942C321.346,138.88 332.02,133.79 343.149,133.79L374.192,133.79C378.386,115.426 392.904,101.881 410.17,101.881L442.481,101.881C441.69,98.063 441.277,94.13 441.277,90.111C441.277,54.201 474.255,25.046 514.874,25.046C555.493,25.046 588.47,54.201 588.47,90.111C588.47,94.13 588.057,98.063 587.267,101.881L613.332,101.881C630.598,101.881 645.116,115.426 649.31,133.79L680.851,133.79C691.98,133.79 702.654,138.88 710.524,147.942C718.394,157.003 722.815,169.293 722.815,182.108L722.815,215.603C722.815,219.644 722.375,223.633 721.526,227.485C719.683,235.848 715.912,243.565 710.524,249.769C702.654,258.831 691.98,263.921 680.851,263.921L343.149,263.921C332.02,263.921 321.346,258.831 313.476,249.769C308.088,243.565 304.317,235.848 302.474,227.485C301.625,223.633 301.185,219.644 301.185,215.603ZM480.561,101.881C485.901,114.026 499.258,122.644 514.874,122.644C530.489,122.644 543.846,114.026 549.186,101.881C550.791,98.231 551.672,94.261 551.672,90.111C551.672,72.156 535.183,57.578 514.874,57.578C494.564,57.578 478.076,72.156 478.076,90.111C478.076,94.261 478.956,98.231 480.561,101.881ZM766.323,191.053L802.851,191.053C876.773,191.053 936.788,251.068 936.788,324.99L936.788,865.018C936.788,938.94 876.773,998.954 802.851,998.954L221.149,998.954C147.227,998.954 87.212,938.94 87.212,865.018L87.212,324.99C87.212,251.068 147.227,191.053 221.149,191.053L257.677,191.053L257.677,215.603C257.677,219.603 257.922,223.572 258.398,227.485L221.149,227.485C167.334,227.485 123.644,271.176 123.644,324.99L123.644,865.018C123.644,918.832 167.334,962.522 221.149,962.522L802.851,962.522C856.666,962.522 900.356,918.832 900.356,865.018L900.356,324.99C900.356,271.176 856.666,227.485 802.851,227.485L765.602,227.485C766.078,223.572 766.323,219.603 766.323,215.603L766.323,191.053ZM398.035,369.874L398.035,497.222C398.035,512.283 385.807,524.511 370.746,524.511L243.398,524.511C228.336,524.511 216.109,512.283 216.109,497.222L216.109,369.874C216.109,354.813 228.336,342.585 243.398,342.585L370.746,342.585C385.807,342.585 398.035,354.813 398.035,369.874ZM249.117,450.86L282.407,484.15C285.828,487.571 290.562,489.347 295.39,489.02C300.218,488.692 304.669,486.294 307.598,482.442L366.518,404.939C372.116,397.576 370.682,387.053 363.319,381.456C355.956,375.858 345.433,377.291 339.836,384.654L292.533,446.875L272.817,427.159C266.277,420.619 255.657,420.619 249.117,427.159C242.576,433.699 242.576,444.319 249.117,450.86ZM825.156,611.782L825.156,690.08C825.156,699.34 817.638,706.858 808.378,706.858L232.887,706.858C223.627,706.858 216.109,699.34 216.109,690.08L216.109,611.782C216.109,602.522 223.627,595.004 232.887,595.004L808.378,595.004C817.638,595.004 825.156,602.522 825.156,611.782ZM825.156,754.889L825.156,833.187C825.156,842.447 817.638,849.965 808.378,849.965L232.887,849.965C223.627,849.965 216.109,842.447 216.109,833.187L216.109,754.889C216.109,745.629 223.627,738.111 232.887,738.111L808.378,738.111C817.638,738.111 825.156,745.629 825.156,754.889ZM439.921,399.072C432.275,399.072 426.067,392.864 426.067,385.218C426.067,377.572 432.275,371.364 439.921,371.364L653.711,371.364C661.357,371.364 667.565,377.572 667.565,385.218C667.565,392.864 661.357,399.072 653.711,399.072L439.921,399.072ZM439.921,495.733C432.275,495.733 426.067,489.525 426.067,481.878C426.067,474.232 432.275,468.024 439.921,468.024L653.711,468.024C661.357,468.024 667.565,474.232 667.565,481.878C667.565,489.525 661.357,495.733 653.711,495.733L439.921,495.733ZM439.921,447.402C432.275,447.402 426.067,441.195 426.067,433.548C426.067,425.902 432.275,419.694 439.921,419.694L810.413,419.694C818.059,419.694 824.267,425.902 824.267,433.548C824.267,441.195 818.059,447.402 810.413,447.402L439.921,447.402Z" style="fill:#5b5b5b;"/>
</svg>
