<?xml version="1.0" encoding="UTF-8" standalone="no"?><!DOCTYPE svg PUBLIC "-//W3C//DTD SVG 1.1//EN" "http://www.w3.org/Graphics/SVG/1.1/DTD/svg11.dtd"><svg width="100%" height="100%" viewBox="0 0 1025 1024" version="1.1" xmlns="http://www.w3.org/2000/svg" xmlns:xlink="http://www.w3.org/1999/xlink" xml:space="preserve" xmlns:serif="http://www.serif.com/" style="fill-rule:evenodd;clip-rule:evenodd;stroke-linejoin:round;stroke-miterlimit:1.5;"><rect id="LogoV2" x="0.062" y="0" width="1024" height="1024" style="fill:#6f53c1;"/><rect x="0.062" y="0" width="1024" height="1024" style="fill:#855ab5;"/><g id="Clipboard"><path d="M791.055,253.228l0,370.572c0,43.826 -35.582,79.408 -79.408,79.408l-399.17,-0c-43.826,-0 -79.408,-35.582 -79.408,-79.408l-0,-370.572c-0,-43.827 35.582,-79.409 79.408,-79.409l399.17,0c43.826,0 79.408,35.582 79.408,79.409Z" style="fill:none;stroke:#fff;stroke-width:25px;"/><path d="M563.711,100.129l17.886,-0c11.848,-0 21.81,9.294 24.688,21.895l21.644,0c7.637,0 14.961,3.494 20.362,9.712c5.4,6.218 8.434,14.651 8.434,23.445l0,22.985c0,8.793 -3.034,17.227 -8.434,23.445c-5.401,6.218 -12.725,9.711 -20.362,9.711l-231.734,-0c-7.637,-0 -14.961,-3.493 -20.362,-9.711c-5.4,-6.218 -8.434,-14.652 -8.434,-23.445l0,-22.985c0,-8.794 3.034,-17.227 8.434,-23.445c5.401,-6.218 12.725,-9.712 20.362,-9.712l21.302,0c2.878,-12.601 12.84,-21.895 24.688,-21.895l22.172,-0c-0.542,-2.62 -0.825,-5.32 -0.825,-8.077c-0,-24.642 22.629,-44.649 50.502,-44.649c27.873,0 50.503,20.007 50.503,44.649c-0,2.757 -0.284,5.457 -0.826,8.077Zm-73.222,-0c3.664,8.334 12.83,14.247 23.545,14.247c10.716,0 19.881,-5.913 23.546,-14.247c1.101,-2.506 1.705,-5.229 1.705,-8.077c0,-12.321 -11.314,-22.324 -25.251,-22.324c-13.936,-0 -25.251,10.003 -25.251,22.324c-0,2.848 0.604,5.571 1.706,8.077Z" style="fill:#fff;"/><path d="M437.054,70.775c9.81,-30.248 39.971,-53.227 76.98,-53.227c37.185,-0 67.457,23.198 77.119,53.659l0.571,0.056l9.504,2.832l8.572,4.397l7.479,5.669c2.659,2.394 5.123,5.076 7.344,8.008l3.306,0l12.34,1.404l11.532,4.028l10.285,6.313c3.12,2.395 6.055,5.147 8.746,8.245c9.929,11.433 15.748,26.853 15.748,43.022l0,22.985c0,16.169 -5.819,31.588 -15.748,43.021c-2.691,3.098 -5.626,5.85 -8.746,8.245l-10.285,6.313l-11.532,4.029l-12.34,1.403l-231.734,0l-12.34,-1.403l-11.532,-4.029l-10.285,-6.313c-3.12,-2.395 -6.055,-5.147 -8.746,-8.245c-9.929,-11.433 -15.748,-26.852 -15.748,-43.021l-0,-22.985c-0,-16.169 5.819,-31.589 15.748,-43.022c2.691,-3.098 5.626,-5.85 8.746,-8.245l10.285,-6.313l11.532,-4.028l12.34,-1.404l2.964,0.001c2.221,-2.933 4.685,-5.615 7.345,-8.009l7.478,-5.669l8.572,-4.397l9.504,-2.832l4.996,-0.488Zm126.657,29.354c0.542,-2.62 0.826,-5.32 0.826,-8.077c-0,-24.642 -22.63,-44.649 -50.503,-44.649c-27.873,0 -50.502,20.007 -50.502,44.649c-0,2.757 0.283,5.457 0.825,8.077l-22.172,-0c-11.848,-0 -21.81,9.294 -24.688,21.895l-21.302,0c-7.637,0 -14.961,3.494 -20.362,9.712c-5.4,6.218 -8.434,14.651 -8.434,23.445l0,22.985c0,8.793 3.034,17.227 8.434,23.445c5.401,6.218 12.725,9.711 20.362,9.711l231.734,-0c7.637,-0 14.961,-3.493 20.362,-9.711c5.4,-6.218 8.434,-14.652 8.434,-23.445l0,-22.985c0,-8.794 -3.034,-17.227 -8.434,-23.445c-5.401,-6.218 -12.725,-9.712 -20.362,-9.712l-21.644,0c-2.878,-12.601 -12.84,-21.895 -24.688,-21.895l-17.886,-0Zm-73.222,-0c-1.102,-2.506 -1.706,-5.229 -1.706,-8.077c-0,-12.321 11.315,-22.324 25.251,-22.324c13.937,-0 25.251,10.003 25.251,22.324c0,2.848 -0.604,5.571 -1.705,8.077c-3.665,8.334 -12.83,14.247 -23.546,14.247c-10.715,0 -19.881,-5.913 -23.545,-14.247Zm27.33,-12.017c-0.695,-1.58 -1.753,-3.591 -3.785,-3.591c-2.031,0 -3.09,2.011 -3.785,3.591c-0.537,1.221 -0.819,2.552 -0.819,3.94c0,3.227 0.954,7.531 4.604,7.531c3.65,-0 4.604,-4.304 4.604,-7.531c0,-1.388 -0.282,-2.719 -0.819,-3.94Z" style="fill:#855ab5;"/><path d="M433.858,284.027l0,87.388c0,10.335 -8.391,18.726 -18.726,18.726l-87.387,-0c-10.335,-0 -18.726,-8.391 -18.726,-18.726l-0,-87.388c-0,-10.335 8.391,-18.725 18.726,-18.725l87.387,-0c10.335,-0 18.726,8.39 18.726,18.725Z" style="fill:#fff;"/><path d="M339.801,331.469l22.844,22.844l40.431,-53.183" style="fill:none;stroke:#855ab5;stroke-width:23px;stroke-linecap:round;"/><path d="M726.953,450.027l-0,53.728c-0,6.355 -5.159,11.514 -11.514,11.514l-394.907,-0c-6.354,-0 -11.513,-5.159 -11.513,-11.514l-0,-53.728c-0,-6.354 5.159,-11.513 11.513,-11.513l394.907,-0c6.355,-0 11.514,5.159 11.514,11.513Z" style="fill:#fff;"/><path d="M726.953,548.228l-0,53.729c-0,6.354 -5.159,11.513 -11.514,11.513l-394.907,0c-6.354,0 -11.513,-5.159 -11.513,-11.513l-0,-53.729c-0,-6.354 5.159,-11.513 11.513,-11.513l394.907,-0c6.355,-0 11.514,5.159 11.514,11.513Z" style="fill:#fff;"/><path d="M462.601,294.557l146.704,-0" style="fill:none;stroke:#fff;stroke-width:19.01px;stroke-linecap:round;"/><path d="M462.601,360.886l146.704,-0" style="fill:none;stroke:#fff;stroke-width:19.01px;stroke-linecap:round;"/><path d="M462.601,327.721l254.235,0" style="fill:none;stroke:#fff;stroke-width:19.01px;stroke-linecap:round;"/></g><g transform="matrix(71.4668,0,0,71.4668,971.305,838.733)"></g><text x="60.277px" y="838.733px" style="font-family:'Arial-Black', 'Arial Black', sans-serif;font-weight:900;font-size:71.467px;fill:#fff;">EXTRA PR<tspan x="460.079px 519.612px " y="838.733px 838.733px ">OD</tspan>UCT D<tspan x="818.286px 868.955px " y="838.733px 838.733px ">AT</tspan>A</text><g transform="matrix(0.880897,0,0,0.880897,-26.5005,204.384)"><text x="223.27px" y="829.787px" style="font-family:'ArialMT', 'Arial', sans-serif;font-size:88.908px;fill:#fff;">for</text><g transform="matrix(88.908,0,0,88.908,1002.21,829.787)"></g><text x="351.726px" y="829.787px" style="font-family:'Arial-BoldMT', 'Arial', sans-serif;font-weight:700;font-size:88.908px;fill:#fff;">W<tspan x="434.036px 488.344px " y="829.787px 829.787px ">oo</tspan>Commerce</text></g></svg>