<?xml version="1.0" encoding="UTF-8" standalone="no"?><!DOCTYPE svg PUBLIC "-//W3C//DTD SVG 1.1//EN" "http://www.w3.org/Graphics/SVG/1.1/DTD/svg11.dtd"><svg width="100%" height="100%" viewBox="0 0 1025 1024" version="1.1" xmlns="http://www.w3.org/2000/svg" xmlns:xlink="http://www.w3.org/1999/xlink" xml:space="preserve" xmlns:serif="http://www.serif.com/" style="fill-rule:evenodd;clip-rule:evenodd;stroke-linejoin:round;stroke-miterlimit:2;"><rect id="LogoV2" x="0.062" y="0" width="1024" height="1024" style="fill:#6f53c1;"/><rect x="0.062" y="0" width="1024" height="1024" style="fill:#855ab5;"/><path id="Clipboard" d="M337.271,266.251l0,-27.771c0,-10.625 3.666,-20.815 10.191,-28.328c6.525,-7.513 15.375,-11.734 24.603,-11.734l25.738,-0c3.477,-15.226 15.514,-26.456 29.829,-26.456l26.79,0c-0.655,-3.165 -0.998,-6.427 -0.998,-9.759c0,-29.774 27.343,-53.947 61.021,-53.947c33.678,0 61.02,24.173 61.02,53.947c0,3.332 -0.342,6.594 -0.998,9.759l21.612,0c14.315,0 26.352,11.23 29.829,26.456l26.152,-0c9.227,-0 18.077,4.221 24.602,11.734c6.525,7.513 10.191,17.703 10.191,28.327l0,27.772c0,3.351 -0.365,6.658 -1.068,9.852c-1.528,6.934 -4.655,13.332 -9.123,18.476c-6.525,7.513 -15.375,11.734 -24.602,11.734l-279.995,-0c-9.228,-0 -18.078,-4.221 -24.603,-11.734c-4.467,-5.144 -7.595,-11.542 -9.123,-18.476c-0.703,-3.194 -1.068,-6.501 -1.068,-9.852Zm148.725,-94.289c4.427,10.07 15.502,17.215 28.449,17.215c12.947,0 24.021,-7.145 28.449,-17.215c1.331,-3.027 2.061,-6.318 2.061,-9.759c-0,-14.887 -13.671,-26.973 -30.51,-26.973c-16.839,-0 -30.51,12.086 -30.51,26.973c-0,3.441 0.73,6.732 2.061,9.759Zm236.93,73.935l30.287,-0c61.29,-0 111.049,49.759 111.049,111.049l0,447.749c0,61.289 -49.759,111.049 -111.049,111.049l-482.302,-0c-61.29,-0 -111.049,-49.76 -111.049,-111.049l-0,-447.749c-0,-61.29 49.759,-111.049 111.049,-111.049l30.287,-0l0,20.354c0,3.317 0.203,6.607 0.598,9.852l-30.885,0c-44.618,0 -80.843,36.225 -80.843,80.843l0,447.749c0,44.618 36.225,80.842 80.843,80.842l482.302,0c44.618,0 80.843,-36.224 80.843,-80.842l-0,-447.749c-0,-44.618 -36.225,-80.843 -80.843,-80.843l-30.885,0c0.395,-3.245 0.598,-6.535 0.598,-9.852l0,-20.354Zm-305.355,148.263l0,105.587c0,12.488 -10.138,22.626 -22.626,22.626l-105.587,0c-12.487,0 -22.626,-10.138 -22.626,-22.626l0,-105.587c0,-12.487 10.139,-22.625 22.626,-22.625l105.587,-0c12.488,-0 22.626,10.138 22.626,22.625Zm-123.471,67.147l27.601,27.602c2.838,2.837 6.763,4.309 10.766,4.038c4.003,-0.272 7.693,-2.26 10.121,-5.454l48.852,-64.259c4.641,-6.105 3.453,-14.83 -2.652,-19.471c-6.105,-4.641 -14.83,-3.453 -19.471,2.652l-39.219,51.589l-16.347,-16.347c-5.423,-5.423 -14.228,-5.423 -19.651,-0c-5.423,5.422 -5.423,14.228 0,19.65Zm477.606,133.424l0,64.919c0,7.677 -6.233,13.911 -13.911,13.911l-477.151,-0c-7.678,-0 -13.912,-6.234 -13.912,-13.911l0,-64.919c0,-7.677 6.234,-13.911 13.912,-13.911l477.151,0c7.678,0 13.911,6.234 13.911,13.911Zm0,118.653l0,64.919c0,7.677 -6.233,13.911 -13.911,13.911l-477.151,-0c-7.678,-0 -13.912,-6.234 -13.912,-13.911l0,-64.919c0,-7.677 6.234,-13.911 13.912,-13.911l477.151,0c7.678,0 13.911,6.234 13.911,13.911Zm-319.406,-295.015c-6.34,0 -11.487,-5.147 -11.487,-11.487c0,-6.339 5.147,-11.487 11.487,-11.487l177.257,0c6.34,0 11.487,5.148 11.487,11.487c0,6.34 -5.147,11.487 -11.487,11.487l-177.257,0Zm0,80.143c-6.34,0 -11.487,-5.147 -11.487,-11.487c0,-6.339 5.147,-11.487 11.487,-11.487l177.257,0c6.34,0 11.487,5.148 11.487,11.487c0,6.34 -5.147,11.487 -11.487,11.487l-177.257,0Zm0,-40.071c-6.34,-0 -11.487,-5.147 -11.487,-11.487c0,-6.34 5.147,-11.487 11.487,-11.487l307.182,-0c6.34,-0 11.487,5.147 11.487,11.487c0,6.34 -5.147,11.487 -11.487,11.487l-307.182,-0Z" style="fill:#fff;"/></svg>